<?xml version="1.0" encoding="UTF-8"?>
<!DOCTYPE svg PUBLIC "-//W3C//DTD SVG 1.1//EN" "http://www.w3.org/Graphics/SVG/1.1/DTD/svg11.dtd">
<!-- Creator: CorelDRAW -->
<svg xmlns="http://www.w3.org/2000/svg" xml:space="preserve" width="57.679mm" height="9.4084mm" version="1.1" style="shape-rendering:geometricPrecision; text-rendering:geometricPrecision; image-rendering:optimizeQuality; fill-rule:evenodd; clip-rule:evenodd"
viewBox="0 0 362.89 59.19"
 xmlns:xlink="http://www.w3.org/1999/xlink"
 xmlns:xodm="http://www.corel.com/coreldraw/odm/2003">
 <defs>
  <style type="text/css">
   <![CDATA[
    .fil1 {fill:url(#id0)}
    .fil11 {fill:url(#id1)}
    .fil0 {fill:url(#id2)}
    .fil9 {fill:url(#id3)}
    .fil15 {fill:url(#id4)}
    .fil3 {fill:url(#id5)}
    .fil5 {fill:url(#id6)}
    .fil14 {fill:url(#id7)}
    .fil12 {fill:url(#id8)}
    .fil13 {fill:url(#id9)}
    .fil10 {fill:url(#id10)}
    .fil2 {fill:url(#id11)}
    .fil8 {fill:url(#id12)}
    .fil7 {fill:url(#id13)}
    .fil6 {fill:url(#id14)}
    .fil4 {fill:url(#id15)}
   ]]>
  </style>
  <linearGradient id="id0" gradientUnits="userSpaceOnUse" x1="38.85" y1="-0.21" x2="38.85" y2="15.58">
   <stop offset="0" style="stop-opacity:1; stop-color:#36AC60"/>
   <stop offset="0.2" style="stop-opacity:1; stop-color:#36AC60"/>
   <stop offset="1" style="stop-opacity:1; stop-color:#26856A"/>
  </linearGradient>
  <linearGradient id="id1" gradientUnits="userSpaceOnUse" x1="75.43" y1="5.86" x2="76.04" y2="96.91">
   <stop offset="0" style="stop-opacity:1; stop-color:#36AC60"/>
   <stop offset="0.0588235" style="stop-opacity:1; stop-color:#36AC60"/>
   <stop offset="0.509804" style="stop-opacity:1; stop-color:#26856A"/>
   <stop offset="1" style="stop-opacity:1; stop-color:#26856A"/>
  </linearGradient>
  <linearGradient id="id2" gradientUnits="userSpaceOnUse" xlink:href="#id0" x1="10.5" y1="21.62" x2="48.71" y2="53.17">
  </linearGradient>
  <linearGradient id="id3" gradientUnits="userSpaceOnUse" x1="330.7" y1="-17.34" x2="333.1" y2="90.23">
   <stop offset="0" style="stop-opacity:1; stop-color:#FBC72B"/>
   <stop offset="0.890196" style="stop-opacity:1; stop-color:#F2894A"/>
   <stop offset="0.980392" style="stop-opacity:1; stop-color:#F07A49"/>
   <stop offset="1" style="stop-opacity:1; stop-color:#F07A49"/>
  </linearGradient>
  <linearGradient id="id4" gradientUnits="userSpaceOnUse" x1="186.02" y1="5.11" x2="186.63" y2="96.19">
   <stop offset="0" style="stop-opacity:1; stop-color:#36AC60"/>
   <stop offset="0.14902" style="stop-opacity:1; stop-color:#36AC60"/>
   <stop offset="0.478431" style="stop-opacity:1; stop-color:#26856A"/>
   <stop offset="1" style="stop-opacity:1; stop-color:#26856A"/>
  </linearGradient>
  <linearGradient id="id5" gradientUnits="userSpaceOnUse" xlink:href="#id0" x1="-3.34" y1="38.35" x2="34.87" y2="69.9">
  </linearGradient>
  <linearGradient id="id6" gradientUnits="userSpaceOnUse" xlink:href="#id3" x1="224.46" y1="-14.74" x2="226.9" y2="92.83">
  </linearGradient>
  <linearGradient id="id7" gradientUnits="userSpaceOnUse" x1="156.63" y1="5.3" x2="157.24" y2="96.38">
   <stop offset="0" style="stop-opacity:1; stop-color:#36AC60"/>
   <stop offset="0.14902" style="stop-opacity:1; stop-color:#36AC60"/>
   <stop offset="0.501961" style="stop-opacity:1; stop-color:#26856A"/>
   <stop offset="1" style="stop-opacity:1; stop-color:#26856A"/>
  </linearGradient>
  <linearGradient id="id8" gradientUnits="userSpaceOnUse" x1="97.71" y1="5.7" x2="98.3" y2="96.78">
   <stop offset="0" style="stop-opacity:1; stop-color:#36AC60"/>
   <stop offset="0.141176" style="stop-opacity:1; stop-color:#36AC60"/>
   <stop offset="0.509804" style="stop-opacity:1; stop-color:#26856A"/>
   <stop offset="1" style="stop-opacity:1; stop-color:#26856A"/>
  </linearGradient>
  <linearGradient id="id9" gradientUnits="userSpaceOnUse" xlink:href="#id8" x1="127.1" y1="5.51" x2="127.72" y2="96.57">
  </linearGradient>
  <linearGradient id="id10" gradientUnits="userSpaceOnUse" xlink:href="#id3" x1="353.17" y1="-17.68" x2="355.57" y2="89.89">
  </linearGradient>
  <linearGradient id="id11" gradientUnits="userSpaceOnUse" x1="19.21" y1="-9" x2="29.74" y2="44.97">
   <stop offset="0" style="stop-opacity:1; stop-color:#FBC72B"/>
   <stop offset="0.729412" style="stop-opacity:1; stop-color:#F2894A"/>
   <stop offset="1" style="stop-opacity:1; stop-color:#F8B84E"/>
  </linearGradient>
  <linearGradient id="id12" gradientUnits="userSpaceOnUse" xlink:href="#id3" x1="305.85" y1="-16.56" x2="308.25" y2="91.01">
  </linearGradient>
  <linearGradient id="id13" gradientUnits="userSpaceOnUse" xlink:href="#id3" x1="283" y1="-15.81" x2="285.44" y2="91.76">
  </linearGradient>
  <linearGradient id="id14" gradientUnits="userSpaceOnUse" xlink:href="#id3" x1="259.92" y1="-15.76" x2="262.32" y2="91.81">
  </linearGradient>
  <linearGradient id="id15" gradientUnits="userSpaceOnUse" xlink:href="#id0" x1="5.24" y1="27.95" x2="43.45" y2="59.53">
  </linearGradient>
 </defs>
 <g id="Слой_x0020_1">
  <metadata id="CorelCorpID_0Corel-Layer"/>
  <g id="_2892902684704">
   <path class="fil0" d="M27.53 22.91c-0.43,0 -0.84,0.11 -1.21,0.29 -1.02,0.5 -1.73,1.59 -1.73,2.87 0,1.28 0.71,2.38 1.73,2.87 0.37,0.18 0.78,0.29 1.21,0.29l9.16 0 -2.49 12.91 -19.12 0.02 -3.71 -19.26 -6.67 0c-0.43,0 -0.84,0.11 -1.21,0.29 -1.02,0.5 -1.73,1.59 -1.73,2.87 0,1.28 0.71,2.38 1.73,2.87 0.37,0.18 0.78,0.29 1.21,0.29l2.19 0 3.81 18.7 28.08 -0.04 4.91 -24.98 -16.15 0z"/>
   <polygon class="fil1" points="42.85,0 34.88,0 34.88,3.85 42.85,10.01 "/>
   <polygon class="fil2" points="-0,19.08 10.73,19.08 24.59,8.42 38.65,19.08 49.42,19.08 24.59,0 "/>
   <path class="fil3" d="M10.78 52.87c0,1.92 1.56,3.48 3.48,3.48 1.92,0 3.48,-1.56 3.48,-3.48 0,-1.92 -1.56,-3.48 -3.48,-3.48 -1.92,0 -3.48,1.56 -3.48,3.48z"/>
   <path class="fil4" d="M31.91 52.87c0,1.92 1.56,3.48 3.48,3.48 1.92,0 3.48,-1.56 3.48,-3.48 0,-1.92 -1.56,-3.48 -3.48,-3.48 -1.92,0 -3.48,1.56 -3.48,3.48z"/>
   <path class="fil5" d="M242.84 9.56l-7.41 0 -7.58 19c-0.58,1.52 -1.21,3.39 -1.9,5.63l-0.1 0 -1.9 -5.63 -7.58 -19 -7.42 0 -3.14 38.44 6.98 0 1.57 -21.49c0.14,-1.7 0.16,-3.7 0.05,-6.01l0.11 0 2.11 6.01 6.22 14.89 6.06 0 6.22 -14.89c0.58,-1.48 1.28,-3.47 2.12,-5.95l0.11 0 0 0.92c-0.04,0.62 -0.05,1.42 -0.05,2.41 0,0.99 0.04,1.87 0.11,2.63l1.57 21.49 6.98 0 -3.14 -38.44z"/>
   <path class="fil6" d="M255.65 20.09c-2.02,0.67 -3.63,1.47 -4.82,2.41l2.54 4.92c2.6,-1.77 5.16,-2.65 7.69,-2.65 3.47,0 5.2,1.62 5.2,4.87l0 0.38 -1.19 0c-1.81,0 -3.53,0.13 -5.17,0.38 -1.64,0.25 -3.34,0.69 -5.09,1.33 -1.75,0.63 -3.16,1.63 -4.22,3 -1.07,1.37 -1.6,3.03 -1.6,4.98 0,2.45 0.88,4.45 2.62,5.98 1.75,1.54 3.91,2.3 6.47,2.3 1.84,0 3.54,-0.46 5.09,-1.38 1.55,-0.92 2.76,-2.12 3.63,-3.6l0.11 0 -0.16 2 0 2.33 6.39 0 0 -17.27c0,-3.47 -1.01,-6.16 -3.04,-8.09 -2.02,-1.93 -4.83,-2.9 -8.45,-2.9 -1.98,0 -3.99,0.33 -6.01,1zm1.27 21.57c-0.74,-0.72 -1.11,-1.57 -1.11,-2.55 0,-2.92 3.11,-4.38 9.31,-4.38l1.19 0 0 0.76c0,1.81 -0.6,3.47 -1.78,4.98 -1.19,1.52 -2.71,2.27 -4.55,2.27 -1.3,0 -2.32,-0.36 -3.06,-1.08z"/>
   <path class="fil7" d="M291.21 20.01l-0.03 0c-2.02,0 -3.83,0.69 -5.41,2.06 -1.59,1.37 -2.71,3.07 -3.36,5.09l-0.11 0 0.11 -1.89 0 -4.87 -6.6 0 0 27.61 6.87 0 0 -11.15c0,-2.82 0.69,-5.2 2.06,-7.15 1.37,-1.95 3.39,-2.92 6.07,-2.92 0.76,0 1.32,0.04 1.68,0.11l0 -6.77c-0.56,-0.07 -0.99,-0.11 -1.27,-0.11z"/>
   <polygon class="fil8" points="301.36,9.56 294.49,9.56 294.49,48 301.36,48 301.36,35.93 304.93,35.93 312.24,48 320.15,48 310.35,32.84 310.35,32.74 319.07,20.39 311.43,20.39 304.78,30.14 301.36,30.14 "/>
   <path class="fil9" d="M322.61 23.13c-2.62,2.69 -3.93,6.16 -3.93,10.42 0,4.04 1.37,7.46 4.12,10.26 2.74,2.8 6.33,4.2 10.77,4.2 2.02,0 4.04,-0.35 6.04,-1.05 2,-0.71 3.69,-1.67 5.06,-2.9l-2.71 -4.93c-2.53,2.02 -5.16,3.03 -7.9,3.03 -2.2,0 -4.08,-0.64 -5.63,-1.92 -1.55,-1.28 -2.44,-3.08 -2.65,-5.39l19 0c0.14,-1.15 0.22,-2.04 0.22,-2.65 0,-3.79 -1.08,-6.92 -3.25,-9.39 -2.17,-2.47 -5.16,-3.71 -8.99,-3.71 -4.15,0 -7.53,1.35 -10.15,4.03zm5.6 2.76c1.19,-1.07 2.65,-1.6 4.38,-1.6 1.59,0 2.89,0.52 3.93,1.57 1.03,1.05 1.56,2.47 1.59,4.28l-12.18 0c0.33,-1.77 1.08,-3.18 2.28,-4.25z"/>
   <path class="fil10" d="M356.17 12.6l-6.71 0 0 7.9 -3.73 0 0 5.47 3.57 0 0 11.64c0,1.77 0.28,3.31 0.84,4.63 0.56,1.32 1.25,2.33 2.06,3.03 0.81,0.7 1.78,1.27 2.89,1.71 1.12,0.43 2.12,0.71 2.98,0.84 0.87,0.13 1.77,0.19 2.71,0.19 0.32,0 1.03,-0.05 2.11,-0.16l0 -6.01c-0.36,0.07 -0.78,0.11 -1.25,0.11 -1.37,0 -2.63,-0.37 -3.76,-1.11 -1.14,-0.74 -1.71,-2.1 -1.71,-4.09l0 -10.77 6.28 0 0 -5.47 -6.28 0 0 -7.9z"/>
   <polygon class="fil11" points="71.9,47.44 79.06,47.44 79.06,13.9 92.11,13.9 92.11,7.68 58.85,7.68 58.85,13.9 71.9,13.9 "/>
   <path class="fil12" d="M88.35 22.38c-2.71,2.78 -4.06,6.37 -4.06,10.78 0,4.18 1.42,7.72 4.25,10.61 2.84,2.89 6.55,4.34 11.14,4.34 2.09,0 4.17,-0.36 6.24,-1.09 2.07,-0.73 3.82,-1.73 5.24,-3l-2.8 -5.1c-2.61,2.09 -5.34,3.14 -8.17,3.14 -2.28,0 -4.22,-0.66 -5.82,-1.99 -1.61,-1.33 -2.52,-3.18 -2.74,-5.57l19.65 0c0.15,-1.19 0.22,-2.11 0.22,-2.74 0,-3.92 -1.12,-7.16 -3.36,-9.71 -2.24,-2.56 -5.34,-3.84 -9.29,-3.84 -4.29,0 -7.79,1.39 -10.5,4.17zm5.8 2.86c1.23,-1.1 2.74,-1.65 4.54,-1.65 1.64,0 3,0.54 4.06,1.63 1.06,1.08 1.61,2.55 1.65,4.42l-12.6 0c0.34,-1.83 1.12,-3.3 2.35,-4.4z"/>
   <path class="fil13" d="M113.87 47.44l7.11 0 0 -13.38c0,-2.65 0.76,-4.87 2.27,-6.66 1.51,-1.79 3.5,-2.69 5.96,-2.69 1.68,0 2.85,0.49 3.5,1.48 0.65,0.99 0.98,2.44 0.98,4.34l0 16.91 7.11 0 0 -18.37c0,-7.24 -3.32,-10.86 -9.97,-10.86 -2.58,0 -4.72,0.62 -6.44,1.87 -1.72,1.25 -2.95,2.64 -3.7,4.17l-0.11 0 0.11 -2.02 0 -3.36 -6.83 0 0 28.55z"/>
   <path class="fil14" d="M146.17 22.24c-2.22,2.69 -3.33,6.09 -3.33,10.19 0,4.11 1.14,7.54 3.42,10.3 2.28,2.76 5.39,4.15 9.35,4.15 3.58,0 6.25,-1.33 8.01,-3.98l0.11 0 -0.11 1.51 0 1.79c0,2.39 -0.75,4.14 -2.24,5.26 -1.49,1.12 -3.44,1.68 -5.82,1.68 -2.72,0 -5.36,-0.62 -7.89,-1.85l-2.18 5.43c3.17,1.64 6.57,2.46 10.19,2.46 1.94,0 3.78,-0.25 5.52,-0.75 1.74,-0.51 3.33,-1.27 4.79,-2.3 1.46,-1.03 2.61,-2.44 3.47,-4.23 0.86,-1.79 1.29,-3.86 1.29,-6.21l0 -26.82 -6.72 0 0 2.29c0,0.3 0.04,0.56 0.11,0.79l-0.17 0c-1.79,-2.5 -4.63,-3.75 -8.51,-3.75 -3.96,0 -7.05,1.34 -9.27,4.03zm5.71 16.24c-1.25,-1.6 -1.88,-3.7 -1.88,-6.27 0,-2.43 0.59,-4.36 1.76,-5.8 1.18,-1.44 2.83,-2.16 4.96,-2.16 4.7,0 7.05,2.74 7.05,8.23 0,2.99 -0.62,5.13 -1.88,6.44 -1.25,1.31 -2.83,1.96 -4.73,1.96 -2.28,0 -4.04,-0.8 -5.29,-2.41z"/>
   <path class="fil15" d="M199.83 31.79l0 -0.03c0,-3.92 -1.12,-7.16 -3.36,-9.71 -2.24,-2.56 -5.34,-3.84 -9.3,-3.84 -4.29,0 -7.79,1.39 -10.5,4.17 -2.71,2.78 -4.06,6.37 -4.06,10.78 0,4.18 1.42,7.72 4.25,10.61 2.84,2.89 6.55,4.34 11.14,4.34 2.09,0 4.17,-0.36 6.24,-1.09 2.07,-0.73 3.82,-1.73 5.24,-3l-2.8 -5.1c-2.61,2.09 -5.34,3.14 -8.18,3.14 -2.28,0 -4.22,-0.66 -5.82,-1.99 -1.61,-1.33 -2.52,-3.18 -2.74,-5.57l19.65 0c0.15,-1.18 0.22,-2.08 0.22,-2.71zm-17.36 -6.55c1.23,-1.1 2.74,-1.65 4.53,-1.65 1.64,0 3,0.54 4.06,1.63 1.06,1.08 1.61,2.55 1.65,4.42l-12.6 0c0.34,-1.83 1.12,-3.3 2.35,-4.4z"/>
  </g>
 </g>
</svg>
